<!-- icon666.com - MILLIONS vector ICONS FREE --><svg enable-background="new 0 0 32 32" viewBox="0 0 32 32" xmlns="http://www.w3.org/2000/svg"><g id="Layer_1"><g><path d="m28.454 28h-9.454c-.553 0-1-.448-1-1s.447-1 1-1h9.454c.301 0 .546-.245.546-.546v-18.908c0-.301-.245-.546-.546-.546h-24.908c-.301 0-.546.245-.546.546v6.454c0 .552-.448 1-1 1s-1-.448-1-1v-6.454c0-1.404 1.142-2.546 2.546-2.546h24.908c1.403 0 2.546 1.142 2.546 2.546v18.908c0 1.404-1.143 2.546-2.546 2.546z" fill="rgb(0,0,0)" style="fill: rgb(255, 255, 255);"></path></g><g><path d="m14.454 28h-10.908c-1.404 0-2.546-1.142-2.546-2.546v-7.908c0-1.404 1.142-2.546 2.546-2.546h10.908c1.404 0 2.546 1.142 2.546 2.546v7.908c0 1.404-1.142 2.546-2.546 2.546zm-10.908-11c-.301 0-.546.245-.546.546v7.908c0 .301.245.546.546.546h10.908c.301 0 .546-.245.546-.546v-7.908c0-.301-.245-.546-.546-.546z" fill="rgb(0,0,0)" style="fill: rgb(255, 255, 255);"></path></g></g></svg>